<?xml version="1.0" standalone="no"?>
<!DOCTYPE svg PUBLIC "-//W3C//DTD SVG 1.1//EN" "http://www.w3.org/Graphics/SVG/1.1/DTD/svg11.dtd" >
<svg xmlns="http://www.w3.org/2000/svg">
<metadata>Generated by IcoMoon</metadata>
<defs>
<font id="secoo" horiz-adv-x="1024">
<font-face units-per-em="1024" ascent="960" descent="-64" />
<missing-glyph horiz-adv-x="1024" />
<glyph unicode="&#x20;" horiz-adv-x="512" d="" />
<glyph unicode="&#xe900;" glyph-name="search" d="M945.231 487.385c0 261.018-211.597 472.615-472.615 472.615s-472.615-211.597-472.615-472.615c0-261.018 211.597-472.615 472.615-472.615s472.615 211.597 472.615 472.615zM78.769 487.385c0 217.515 176.331 393.846 393.846 393.846s393.846-176.331 393.846-393.846c0-217.515-176.331-393.846-393.846-393.846s-393.846 176.331-393.846 393.846zM956.766-52.465c15.381-15.381 40.318-15.381 55.698 0s15.381 40.318 0 55.698l-174.418 174.418c-15.381 15.381-40.318 15.381-55.698 0s-15.381-40.318 0-55.698l174.418-174.418z" />
<glyph unicode="&#xe901;" glyph-name="more" d="M80.842 528.842c44.648 0 80.842-36.194 80.842-80.842s-36.194-80.842-80.842-80.842c-44.648 0-80.842 36.194-80.842 80.842s36.194 80.842 80.842 80.842zM512 528.842c44.648 0 80.842-36.194 80.842-80.842s-36.194-80.842-80.842-80.842c-44.648 0-80.842 36.194-80.842 80.842s36.194 80.842 80.842 80.842zM943.158 528.842c44.648 0 80.842-36.194 80.842-80.842s-36.194-80.842-80.842-80.842c-44.648 0-80.842 36.194-80.842 80.842s36.194 80.842 80.842 80.842z" />
<glyph unicode="&#xe902;" glyph-name="fenlei" d="M80.842 555.629c0 14.991-12.109 27.107-27.107 27.107h323.689c-14.991 0-27.107-12.109-27.107-27.107v215.649c0 44.849-36.123 80.932-80.932 80.932h-215.649c14.991 0 27.107 12.109 27.107 27.107v-323.689zM53.735 933.053h215.649c89.345 0 161.774-72.166 161.774-161.774v-215.649c0-29.677-24.105-53.735-53.735-53.735h-323.689c-29.677 0-53.735 24.105-53.735 53.735v323.689c0 29.677 24.105 53.735 53.735 53.735zM619.789 16.682c0 14.991-12.109 27.107-27.107 27.107h323.689c-14.991 0-27.107-12.109-27.107-27.107v215.649c0 44.849-36.123 80.932-80.932 80.932h-215.649c14.991 0 27.107 12.109 27.107 27.107v-323.689zM592.682 394.105h215.649c89.345 0 161.774-72.166 161.774-161.774v-215.649c0-29.677-24.105-53.735-53.735-53.735h-323.689c-29.677 0-53.735 24.105-53.735 53.735v323.689c0 29.677 24.105 53.735 53.735 53.735zM80.842 16.682c0 14.991-12.109 27.107-27.107 27.107h323.689c-14.991 0-27.107-12.109-27.107-27.107v323.689c0-14.991 12.109-27.107 27.107-27.107h-323.689c14.991 0 27.107 12.109 27.107 27.107v-323.689zM53.735 394.105h323.689c29.677 0 53.735-24.105 53.735-53.735v-323.689c0-29.677-24.105-53.735-53.735-53.735h-323.689c-29.677 0-53.735 24.105-53.735 53.735v323.689c0 29.677 24.105 53.735 53.735 53.735zM970.105 717.474c0 126.502-102.55 229.053-229.053 229.053s-229.053-102.55-229.053-229.053c0-126.502 102.55-229.053 229.053-229.053s229.053 102.55 229.053 229.053zM592.842 717.474c0 81.854 66.356 148.211 148.211 148.211s148.211-66.356 148.211-148.211c0-81.854-66.356-148.211-148.211-148.211s-148.211 66.356-148.211 148.211zM957.273 484.678c16.95-14.528 42.467-12.565 56.996 4.384s12.565 42.467-4.384 56.996l-94.316 80.842c-16.95 14.528-42.467 12.565-56.996-4.384s-12.565-42.467 4.384-56.996l94.316-80.842z" />
<glyph unicode="&#xe903;" glyph-name="back" horiz-adv-x="569" d="M84.015 451.148c1.758-1.758 1.757-4.54 0-6.297l399.645 399.645c16.662 16.662 16.662 43.677 0 60.34s-43.677 16.662-60.34 0l-399.645-399.645c-31.555-31.555-31.58-82.803 0-114.383l399.645-399.645c16.662-16.662 43.677-16.662 60.34 0s16.662 43.677 0 60.34l-399.645 399.645z" />
<glyph unicode="&#xe904;" glyph-name="logo" horiz-adv-x="590" d="M495.318 797.589c0 0-1.624 0.797-2.624 0.604-2.926-0.567-1.605-3.413-17.635-4.574h-99.94v45.371h55.109c1.728 0.025 16.877 0.881 26.594 23.442 0 0-1.624 0.797-2.62 0.604-2.93-0.567-1.607-3.413-17.637-4.574h-61.446v23.305h-0.055c0.008 0.277 0.827 33.101-47.232 53.733 0 0-1.605-3.259-1.217-5.263 1.314-6.743 8.67-2.15 10.011-51.909v-19.866h-71.508c-16.036 1.162-14.713 4.007-17.643 4.574-0.996 0.194-2.622-0.604-2.622-0.604 10.26-23.808 26.558-23.446 26.754-23.442h65.019v-45.371h-110.004c-16.034 1.162-14.713 4.007-17.643 4.574-0.996 0.194-2.62-0.604-2.62-0.604 10.258-23.806 26.556-23.448 26.756-23.44h127.785v-45.373h-134.278c-16.034 1.16-14.713 4.005-17.643 4.574-0.996 0.194-2.62-0.604-2.62-0.604 10.258-23.806 26.556-23.446 26.756-23.44h127.785v-225.173h-149.071c-4.24 11.502-15.359 28.553-44.606 41.108 0 0-1.601-3.259-1.213-5.263 1.308-6.743 8.665-2.15 10.007-51.911v-13.912h-0.008v-325.122c-1.342-49.759-8.697-45.168-10.007-51.913-0.388-2 1.217-5.261 1.217-5.261 48.059 20.633 47.236 53.458 47.226 53.733h0.063v59.583h94.76v-168.194c-1.344-49.759-8.701-45.168-10.007-51.913-0.39-2.002 1.213-5.261 1.213-5.261 48.059 20.633 47.236 53.458 47.228 53.732h0.061v171.637l80.538 0.002c1.728 0.023 16.877 0.877 26.594 23.438 0 0-1.62 0.797-2.622 0.604-2.928-0.566-1.601-3.411-17.637-4.574h-86.873v44.642h42.817c1.726 0.025 16.875 0.879 26.594 23.442 0 0-1.622 0.795-2.622 0.602-2.928-0.569-1.601-3.414-17.637-4.574h-49.152v79.728h-0.095v3.342h42.912c1.726 0.021 16.875 0.877 26.594 23.436 0 0-1.622 0.799-2.622 0.607-2.928-0.567-1.601-3.413-17.637-4.576h-48.966c1.785 39.394 7.868 37.91 9.509 43.179 38.056 18.463 41.547 44.606 41.847 50.192h28.996c1.728 0.023 16.877 0.879 26.594 23.44 0 0-1.62 0.797-2.622 0.604-2.928-0.567-1.601-3.413-17.637-4.574h-35.242v225.173h69.328c1.726 0.023 16.875 0.879 26.594 23.44 0 0-1.624 0.797-2.624 0.604-2.926-0.569-1.605-3.414-17.635-4.574h-75.663v45.373h69.328c1.726 0.023 16.875 0.879 26.594 23.44v0zM247.357 249.287h61.817v-4.128h0.095v-40.514h-94.76v161.13h0.004v98.89h30.019v-195.908h-3.662c-16.036 1.16-14.711 4.005-17.641 4.574-0.998 0.194-2.62-0.602-2.62-0.602 10.256-23.808 26.553-23.448 26.748-23.442v0zM283.025 268.758v83.068h26.149v-83.068h-26.149zM360.756 464.665c-1.584-42.942-7.982-41.138-9.661-46.576-32.804-15.933-39.934-37.572-41.452-46.794h-26.619v93.371h77.732zM321.007 633.865h-0.057c0.010 0.277 0.827 33.101-47.23 53.733 0 0-1.605-3.259-1.217-5.263 1.312-6.743 8.668-2.15 10.011-51.911v-93.454h0.017c0.127-2.744 1.626-18.773 19.23-18.773 0 0 18.911 0.025 19.217 18.773h0.029v96.895zM120.091 137.22v3.151l-7.723-0.066c-2.55-3.42-3.761-6.905-3.761-10.929 0-9.45 4.702-15.017 11.823-15.017 3.894 0 7.387 1.611 9.803 4.559 1.947 2.348 3.626 5.497 5.708 9.118 2.753 4.827 5.506 7.243 9.136 7.243 4.094 0 6.109-2.684 6.109-7.981 0-3.754-1.342-5.899-2.616-8.112-0.806-1.274-1.548-2.211-1.548-3.151 0-1.139 1.276-2.278 2.62-2.278 0.673 0 1.411 0.334 2.35 1.139 3.090 3.285 4.769 7.643 4.769 12.671 0 9.72-5.438 15.954-13.566 15.954-5.911 0-9.602-3.151-13.433-9.919-3.827-6.774-5.438-11.063-10.813-11.063-3.759 0-5.774 2.076-5.774 6.235 0 5.563 2.284 8.446 6.784 8.446h0.133zM156.021 181.895h-4.634v-15.284c0-2.883 0-3.819-3.021-3.819h-14.371v15.751h-4.637v-15.751h-12.222c-2.552 0-3.023 1.002-3.023 3.752v11.866c0 1.34-1.008 2.414-2.417 2.414-1.209 0-2.217-1.074-2.217-2.348v-29.699h3.291v0.672c0 4.961 1.479 5.295 6.314 5.295h32.238c3.090 0.336 4.698 2.078 4.698 5.028v22.123zM150.649 215.986c1.008-2.346 1.479-4.557 1.479-6.77 0-8.583-6.583-12.403-20.419-12.403-12.625 0-18.605 2.949-18.605 10.122 0 5.7 2.487 8.983 7.052 9.387v3.149h-9.201c-1.61-3.684-2.35-7.508-2.35-11.731 0-13.341 7.254-19.374 23.104-19.374 17.192 0 24.984 5.631 24.984 19.71 0 8.446-2.62 13.206-5.307 13.206-1.141 0-2.082-0.871-2.082-1.875 0-0.672 0.47-1.811 1.344-3.42v0zM132.851 264.34c-16.521 0-24.244-5.563-24.244-18.167 0-13.14 7.588-18.57 24.244-18.57 16.319 0 23.91 5.698 23.91 18.57 0 12.604-7.655 18.167-23.91 18.167v0zM132.649 255.826c13.433 0 19.546-1.475 19.546-9.653 0-7.040-6.314-10.055-19.345-10.055-13.296 0-19.611 2.614-19.611 10.055 0 7.977 6.044 9.653 19.409 9.653v0zM132.851 310.002c-16.521 0-24.244-5.563-24.244-18.167 0-13.142 7.588-18.57 24.244-18.57 16.319 0 23.91 5.7 23.91 18.57 0 12.604-7.655 18.167-23.91 18.167v0zM132.649 301.489c13.433 0 19.546-1.477 19.546-9.655 0-7.040-6.314-10.057-19.345-10.057-13.296 0-19.611 2.615-19.611 10.057 0 7.977 6.044 9.655 19.409 9.655v0zM152.26 326.936c-2.552 0-4.565-2.012-4.565-4.491 0-2.483 2.014-4.491 4.565-4.491 2.487 0 4.501 1.942 4.501 4.491 0 2.479-2.014 4.491-4.501 4.491v0zM150.649 362.447c1.008-2.344 1.479-4.557 1.479-6.77 0-8.583-6.583-12.403-20.419-12.403-12.625 0-18.605 2.949-18.605 10.122 0 5.7 2.487 8.985 7.052 9.387v3.151h-9.201c-1.61-3.686-2.35-7.508-2.35-11.733 0-13.341 7.254-19.374 23.104-19.374 17.192 0 24.984 5.631 24.984 19.71 0 8.446-2.62 13.206-5.307 13.206-1.141 0-2.082-0.871-2.082-1.875 0-0.672 0.47-1.809 1.344-3.42v0zM132.851 410.805c-16.521 0-24.244-5.567-24.244-18.171 0-13.14 7.588-18.57 24.244-18.57 16.319 0 23.91 5.698 23.91 18.57 0 12.604-7.655 18.171-23.91 18.171v0zM132.649 402.289c13.433 0 19.546-1.475 19.546-9.655 0-7.040-6.314-10.055-19.345-10.055-13.296 0-19.611 2.614-19.611 10.055 0 7.979 6.044 9.655 19.409 9.655v0zM109.414 466.491v-10.19l36.398-12.132-36.398-12.472v-15.618h3.356v0.402c0 5.428 1.342 5.631 6.044 5.631h35.126c1.475 0 2.753 1.272 2.753 2.813 0 1.543-1.209 2.75-2.753 2.75h-34.253l34.187 11.464c1.745 0.604 2.82 2.078 2.82 3.821 0 1.811-1.074 3.352-2.753 3.891l-34.59 11.528h36.67v8.112h-46.606z" />
<glyph unicode="&#xe905;" d="M1024 448c0-282.77-229.23-512-512-512s-512 229.23-512 512c0 282.77 229.23 512 512 512s512-229.23 512-512z" />
<glyph unicode="&#xe906;" d="M355.882 649.373l362.039-362.039c12.497-12.497 12.497-32.758 0-45.255s-32.758-12.497-45.255 0l-362.039 362.039c-12.497 12.497-12.497 32.758 0 45.255s32.758 12.497 45.255 0z" />
<glyph unicode="&#xe907;" d="M672.666 649.373l-362.039-362.039c-12.497-12.497-12.497-32.758 0-45.255s32.758-12.497 45.255 0l362.039 362.039c12.497 12.497 12.497 32.758 0 45.255s-32.758 12.497-45.255 0z" />
<glyph unicode="&#xe908;" d="M246.515 485.926c20.859 0 37.926-17.067 37.926-37.926s-17.067-37.926-37.926-37.926h-208.593c-20.859 0-37.926 17.067-37.926 37.926s17.067 37.926 37.926 37.926h208.593z" />
<glyph unicode="&#xe909;" d="M263.121 348.105c18.072 10.43 41.377 4.191 51.807-13.881s4.191-41.377-13.881-51.807l-180.641-104.296c-18.072-10.43-41.377-4.191-51.807 13.881s-4.191 41.377 13.881 51.807l180.641 104.296z" />
<glyph unicode="&#xe90a;" d="M346.412 237.050c10.43 18.072 33.735 24.311 51.807 13.881s24.311-33.735 13.881-51.807l-104.296-180.641c-10.43-18.072-33.735-24.311-51.807-13.881s-24.311 33.735-13.881 51.807l104.296 180.641z" />
<glyph unicode="&#xe90b;" d="M549.922-26.074c0-20.859-17.067-37.926-37.926-37.926s-37.926 17.067-37.926 37.926v208.593c0 20.859 17.067 37.926 37.926 37.926s37.926-17.067 37.926-37.926v-208.593z" />
<glyph unicode="&#xe90c;" d="M781.877 56.403c10.43-18.072 4.191-41.377-13.881-51.807s-41.377-4.191-51.807 13.881l-104.296 180.641c-10.43 18.072-4.191 41.377 13.881 51.807s41.377 4.191 51.807-13.881l104.296-180.641z" />
<glyph unicode="&#xe90d;" d="M941.519 243.809c18.072-10.43 24.311-33.735 13.881-51.807s-33.735-24.311-51.807-13.881l-180.641 104.296c-18.072 10.43-24.311 33.735-13.881 51.807s33.735 24.311 51.807 13.881l180.641-104.296z" />
<glyph unicode="&#xe90e;" d="M1023.996 448.080v-0.152c0-20.916-20.12-37.85-44.942-37.85h-194.56c-24.823 0-44.942 16.934-44.942 37.85v0.152c0 20.897 20.12 37.85 44.942 37.85h194.56c24.823 0 44.942-16.953 44.942-37.85z" />
<glyph unicode="&#xe90f;" d="M903.593 717.883c18.072 10.43 41.377 4.191 51.807-13.881s4.191-41.377-13.881-51.807l-180.641-104.296c-18.072-10.43-41.377-4.191-51.807 13.881s-4.191 41.377 13.881 51.807l180.641 104.296z" />
<glyph unicode="&#xe910;" d="M716.189 877.524c10.43 18.072 33.735 24.311 51.807 13.881s24.311-33.735 13.881-51.807l-104.296-180.641c-10.43-18.072-33.735-24.311-51.807-13.881s-24.311 33.735-13.881 51.807l104.296 180.641z" />
<glyph unicode="&#xe911;" d="M549.922 713.481c0-20.859-17.067-37.926-37.926-37.926s-37.926 17.067-37.926 37.926v208.593c0 20.859 17.067 37.926 37.926 37.926s37.926-17.067 37.926-37.926v-208.593z" />
<glyph unicode="&#xe912;" d="M412.099 696.878c10.43-18.072 4.191-41.377-13.881-51.807s-41.377-4.191-51.807 13.881l-104.296 180.641c-10.43 18.072-4.191 41.377 13.881 51.807s41.377 4.191 51.807-13.881l104.296-180.641z" />
<glyph unicode="&#xe913;" glyph-name="next" horiz-adv-x="597" d="M551.567 375.724c39.914 39.914 39.883 104.67 0 144.553l-399.645 399.645c-24.994 24.994-65.516 24.994-90.51 0s-24.994-65.516 0-90.51l399.645-399.645c-10.085 10.085-10.092 26.374 0 36.466l-399.645-399.645c-24.994-24.994-24.994-65.516 0-90.51s65.516-24.994 90.51 0l399.645 399.645z" />
<glyph unicode="&#xe914;" d="M1024 448c0-282.77-229.23-512-512-512s-512 229.23-512 512c0 282.77 229.23 512 512 512s512-229.23 512-512z" />
<glyph unicode="&#xe915;" d="M421.831 356.981c7.895 7.895 20.421 7.865 28.286 0l-160.176 160.176c-18.745 18.745-49.137 18.745-67.882 0s-18.745-49.137 0-67.882l160.176-160.176c29.552-29.552 77.81-29.668 107.479 0l296.986 296.986c18.745 18.745 18.745 49.137 0 67.882s-49.137 18.745-67.882 0l-296.986-296.986z" />
<glyph unicode="&#xe916;" d="M512 960c282.77 0 512-229.23 512-512s-229.23-512-512-512c-282.77 0-512 229.23-512 512s229.23 512 512 512z" />
<glyph unicode="&#xe917;" d="M421.831 356.981c7.895 7.895 20.421 7.865 28.286 0l-160.176 160.176c-18.745 18.745-49.137 18.745-67.882 0s-18.745-49.137 0-67.882l160.176-160.176c29.552-29.552 77.81-29.668 107.479 0l296.986 296.986c18.745 18.745 18.745 49.137 0 67.882s-49.137 18.745-67.882 0l-296.986-296.986z" />
</font>
</defs>
</svg>
